<?xml version="1.0" encoding="UTF-8" standalone="no"?>
<!-- Created with Inkscape (http://www.inkscape.org/) -->
<svg xmlns:dc="http://purl.org/dc/elements/1.1/" xmlns:cc="http://creativecommons.org/ns#" xmlns:rdf="http://www.w3.org/1999/02/22-rdf-syntax-ns#" xmlns:svg="http://www.w3.org/2000/svg" xmlns="http://www.w3.org/2000/svg" xmlns:sodipodi="http://sodipodi.sourceforge.net/DTD/sodipodi-0.dtd" xmlns:inkscape="http://www.inkscape.org/namespaces/inkscape" width="10mm" height="10mm" viewBox="0 0 35.433071 35.433071" id="svg2" version="1.1" inkscape:version="0.91 r13725" sodipodi:docname="my_attempt.svg">
  <defs id="defs4"/>
  
  
  <g inkscape:groupmode="layer" id="layer3" inkscape:label="Mask" transform="translate(0,-1016.9291)" style="display:inline">
    <path style="color:#000000;clip-rule:nonzero;display:inline;overflow:visible;visibility:visible;opacity:1;isolation:auto;mix-blend-mode:normal;color-interpolation:sRGB;color-interpolation-filters:linearRGB;solid-color:#000000;solid-opacity:1;fill:#ff00ff;fill-opacity:1;fill-rule:evenodd;stroke:#ff00ff;stroke-width:0.70866142;stroke-linecap:round;stroke-linejoin:round;stroke-miterlimit:4;stroke-dasharray:none;stroke-dashoffset:0;stroke-opacity:1;color-rendering:auto;image-rendering:auto;shape-rendering:auto;text-rendering:auto;enable-background:accumulate" d="m 35.433073,1034.6456 c 7e-6,4.8922 -1.982981,9.3214 -5.189044,12.5275 -3.206063,3.2061 -7.6352,5.1891 -12.527492,5.1891 -4.892292,0 -9.3214292,-1.983 -12.527492,-5.1891 C 1.9829822,1043.967 -5.8404762e-6,1039.5378 1.9169513e-6,1034.6456 9.6743788e-6,1029.7534 1.9830081,1025.3242 5.1890723,1022.1182 c 3.2060642,-3.2061 7.6351947,-5.1891 12.5274647,-5.1891 4.892271,0 9.3214,1.983 12.527465,5.1891 3.206064,3.206 5.189063,7.6352 5.189071,12.5274 z" id="path8889" inkscape:connector-curvature="0" sodipodi:nodetypes="sssssssss"/>
  </g>
  <g inkscape:groupmode="layer" id="layer2" inkscape:label="Cu" style="display:inline" transform="translate(0,-1016.9291)">
    <path style="color:#000000;clip-rule:nonzero;display:inline;overflow:visible;visibility:visible;opacity:1;isolation:auto;mix-blend-mode:normal;color-interpolation:sRGB;color-interpolation-filters:linearRGB;solid-color:#000000;solid-opacity:1;fill:#ff0000;fill-opacity:1;fill-rule:evenodd;stroke:none;stroke-width:2.51999998;stroke-linecap:round;stroke-linejoin:round;stroke-miterlimit:4;stroke-dasharray:none;stroke-dashoffset:0;stroke-opacity:1;color-rendering:auto;image-rendering:auto;shape-rendering:auto;text-rendering:auto;enable-background:accumulate" d="M 17.716797 0 C 12.824527 0 8.3955173 1.9833531 5.1894531 5.1894531 C 1.9833889 8.3954531 7.7574275e-06 12.824597 0 17.716797 C -5.0679364e-06 20.912877 0.85904323 23.903266 2.3398438 26.492188 L 2.8066406 26.025391 L 8.90625 19.925781 C 9.2971582 19.534581 9.2985453 18.929263 8.9082031 18.539062 A 0.92030322 0.92030322 0 0 0 8.90625 18.539062 C 8.5156164 18.148062 7.9121179 18.148062 7.5214844 18.539062 A 0.92030322 0.92030322 0 0 1 7.5058594 18.552734 L 6.3828125 19.630859 L 6.3964844 19.613281 C 5.3027665 20.707581 3.501921 20.707581 2.4082031 19.613281 C 1.314038 18.517881 1.4180697 16.790441 2.3554688 15.681641 C 2.8088012 15.146141 3.1687961 14.768475 3.4179688 14.296875 C 3.6188392 13.916675 3.7395992 13.272522 3.6601562 12.169922 C 3.6020416 11.364022 3.9566478 10.636775 4.484375 10.109375 C 5.5782588 9.015875 7.3787717 9.015875 8.4726562 10.109375 L 12.904297 14.431641 A 0.92030322 0.92030322 0 0 1 12.912109 14.441406 C 13.302521 14.831706 13.908416 14.831706 14.298828 14.441406 C 14.688912 14.051506 14.688839 13.444487 14.298828 13.054688 A 0.92030322 0.92030322 0 0 1 14.291016 13.044922 L 9.96875 8.6113281 C 8.8746644 7.5178281 8.8752311 5.7172469 9.96875 4.6230469 C 10.495571 4.0963469 11.222339 3.7418281 12.027344 3.7988281 C 13.131572 3.8768281 13.778743 3.7565406 14.15625 3.5566406 C 14.627542 3.3074406 15.004458 2.9479406 15.541016 2.4941406 A 0.92030322 0.92030322 0 0 0 15.542969 2.4941406 C 16.097556 2.0256406 16.806262 1.7678125 17.513672 1.7578125 L 17.513672 1.7636719 C 18.221082 1.7569719 18.926873 2.0052344 19.474609 2.5527344 C 20.568028 3.6469344 20.568596 5.4474156 19.474609 6.5410156 L 18.412109 7.6503906 A 0.92030322 0.92030322 0 0 1 18.398438 7.6679688 C 18.008091 8.0581688 18.007521 8.6634875 18.398438 9.0546875 C 18.788382 9.4443875 19.392745 9.4434875 19.783203 9.0546875 L 23.080078 5.7460938 A 0.92030322 0.92030322 0 0 0 23.082031 5.7460938 C 24.17594 4.6526938 25.976405 4.6526938 27.070312 5.7460938 C 28.16432 6.8396938 28.163825 8.640175 27.070312 9.734375 A 0.92030322 0.92030322 0 0 0 27.068359 9.734375 L 9.5859375 27.09375 L 9.5839844 27.09375 C 9.1950606 27.48505 9.1962582 28.089016 9.5859375 28.478516 C 9.975907 28.866816 10.580004 28.867516 10.970703 28.478516 L 14.34375 25.087891 A 0.92030322 0.92030322 0 0 0 14.345703 25.087891 C 15.439611 23.994491 17.242031 23.994491 18.335938 25.087891 C 19.428899 26.181591 19.428552 27.982372 18.335938 29.076172 L 17.273438 30.185547 A 0.92030322 0.92030322 0 0 1 17.259766 30.199219 C 16.869521 30.589219 16.868881 31.194737 17.259766 31.585938 C 17.648016 31.973737 18.207805 31.950556 18.701172 31.535156 C 19.17761 31.132156 19.67374 30.6426 20.416016 30.25 C 21.249747 29.8099 22.257446 29.707828 23.533203 29.798828 C 23.69998 29.810528 23.94779 29.724066 24.162109 29.509766 C 24.552919 29.118766 24.552421 28.513247 24.162109 28.123047 A 0.92030322 0.92030322 0 0 1 24.154297 28.113281 L 19.832031 23.681641 L 19.830078 23.681641 C 18.739212 22.587541 18.738913 20.788012 19.832031 19.695312 C 20.925912 18.601813 22.726433 18.601813 23.820312 19.695312 L 28.253906 24.017578 A 0.92030322 0.92030322 0 0 1 28.261719 24.027344 C 28.652144 24.417544 29.258019 24.417544 29.648438 24.027344 C 29.86303 23.812744 29.94931 23.564191 29.9375 23.400391 C 29.845422 22.122691 29.948066 21.11515 30.388672 20.28125 C 30.780962 19.53865 31.268878 19.044359 31.671875 18.568359 C 32.089339 18.074459 32.113298 17.5136 31.724609 17.125 C 31.333993 16.7342 30.728507 16.7342 30.337891 17.125 A 0.92030322 0.92030322 0 0 1 30.322266 17.140625 L 29.212891 18.201172 C 28.119174 19.295572 26.318326 19.295572 25.224609 18.201172 C 24.130624 17.107572 24.130621 15.306491 25.224609 14.212891 L 31.324219 8.1113281 L 32.074219 7.3632812 C 31.517854 6.5931397 30.914337 5.8596364 30.244141 5.1894531 C 27.038076 1.9833531 22.609068 0 17.716797 0 z M 17.490234 3.5761719 C 17.240149 3.5856969 16.97713 3.6939938 16.730469 3.9023438 C 16.254138 4.3051437 15.759916 4.7929469 15.017578 5.1855469 C 14.181453 5.6267469 13.173953 5.7267188 11.898438 5.6367188 A 0.92030322 0.92030322 0 0 0 11.896484 5.6367188 C 11.7321 5.6248188 11.484435 5.7109813 11.269531 5.9257812 C 10.878718 6.3168813 10.879287 6.9225 11.269531 7.3125 A 0.92030322 0.92030322 0 0 1 11.277344 7.3242188 L 15.601562 11.759766 C 16.692527 12.853866 16.692757 14.653394 15.599609 15.746094 C 14.505705 16.839494 12.705232 16.839494 11.611328 15.746094 L 7.1796875 11.423828 A 0.92030322 0.92030322 0 0 1 7.171875 11.412109 C 6.7814316 11.021809 6.1755984 11.021809 5.7851562 11.412109 C 5.5707218 11.626509 5.4842867 11.875362 5.4960938 12.039062 C 5.5881511 13.316662 5.4855278 14.324203 5.0449219 15.158203 C 4.6528948 15.900303 4.1644739 16.395394 3.7617188 16.871094 C 3.3456342 17.364394 3.3207419 17.9244 3.7089844 18.3125 C 4.0995945 18.7033 4.705093 18.7033 5.0957031 18.3125 A 0.92030322 0.92030322 0 0 1 5.109375 18.298828 L 6.21875 17.238281 C 7.3124444 16.143781 9.1152903 16.143781 10.208984 17.238281 C 11.301592 18.331981 11.301941 20.132863 10.208984 21.226562 L 4.1074219 27.326172 L 3.3613281 28.072266 C 3.9170537 28.841157 4.5202375 29.574917 5.1894531 30.244141 C 8.3955159 33.450241 12.824505 35.433594 17.716797 35.433594 C 22.609089 35.433594 27.038078 33.450241 30.244141 30.244141 C 33.450204 27.038041 35.433601 22.608997 35.433594 17.716797 C 35.433589 14.521812 34.575566 11.531647 33.095703 8.9433594 L 32.626953 9.4140625 L 26.525391 15.513672 C 26.135045 15.903872 26.135046 16.510191 26.525391 16.900391 C 26.915996 17.291291 27.521506 17.291291 27.912109 16.900391 A 0.92030322 0.92030322 0 0 1 27.925781 16.884766 L 29.037109 15.824219 C 30.130963 14.731319 31.932129 14.730319 33.025391 15.824219 C 34.121014 16.919519 34.015839 18.646559 33.078125 19.755859 A 0.92030322 0.92030322 0 0 0 33.076172 19.755859 C 32.622905 20.291259 32.264811 20.666972 32.015625 21.138672 C 31.814728 21.518872 31.693977 22.164878 31.773438 23.267578 C 31.831548 24.073378 31.476795 24.800625 30.949219 25.328125 C 29.855312 26.421525 28.054848 26.421525 26.960938 25.328125 L 22.527344 21.005859 A 0.92030322 0.92030322 0 0 1 22.519531 20.996094 C 22.129096 20.605794 21.523249 20.605794 21.132812 20.996094 C 20.742699 21.386094 20.742701 21.990859 21.132812 22.380859 A 0.92030322 0.92030322 0 0 1 21.140625 22.390625 L 25.462891 26.822266 C 26.556899 27.915866 26.556403 29.716347 25.462891 30.810547 C 24.935044 31.338247 24.207732 31.690766 23.404297 31.634766 A 0.92030322 0.92030322 0 0 0 23.402344 31.634766 C 22.299489 31.555966 21.654781 31.676753 21.275391 31.876953 C 20.804028 32.126253 20.427081 32.485653 19.890625 32.939453 C 18.781451 33.876153 17.052499 33.983572 15.957031 32.888672 C 14.863584 31.794372 14.862944 29.993891 15.957031 28.900391 L 17.019531 27.791016 A 0.92030322 0.92030322 0 0 1 17.033203 27.773438 C 17.423083 27.383637 17.422717 26.779872 17.033203 26.388672 C 16.643452 26.000972 16.038922 26.000372 15.648438 26.388672 L 12.275391 29.777344 A 0.92030322 0.92030322 0 0 0 12.273438 29.777344 C 11.17974 30.871844 9.3788507 30.871844 8.2851562 29.777344 C 7.1911732 28.683744 7.1917392 26.883263 8.2851562 25.789062 A 0.92030322 0.92030322 0 0 0 8.2871094 25.789062 L 25.769531 8.4277344 C 26.160339 8.0367344 26.159842 7.4312156 25.769531 7.0410156 C 25.379106 6.6508156 24.773239 6.6508156 24.382812 7.0410156 L 21.085938 10.349609 C 19.992033 11.443009 18.191561 11.443009 17.097656 10.349609 A 0.92030322 0.92030322 0 0 0 17.095703 10.349609 C 16.002329 9.2554094 16.003667 7.4549281 17.097656 6.3613281 L 18.158203 5.2519531 A 0.92030322 0.92030322 0 0 1 18.173828 5.2363281 C 18.564126 4.8461281 18.562789 4.2408094 18.171875 3.8496094 C 17.977472 3.6561594 17.74032 3.5666469 17.490234 3.5761719 z " transform="translate(0,1016.9291)" id="path8940"/>
  </g>
  <g inkscape:label="isolation_gab" inkscape:groupmode="layer" id="layer1" style="display:inline" transform="translate(0,-1016.9291)">
    <path sodipodi:nodetypes="ccsccsssssccsccsssssccsccsccsccsccsssssccsccsssssccscc" inkscape:connector-curvature="0" id="path8877" d="m 33.033382,1024.6286 -1.057736,1.0577 -6.100652,6.1011 c -0.742167,0.7419 -0.742167,1.9451 -2e-6,2.687 0.742161,0.7426 1.94545,0.7426 2.68761,0 l 1.124383,-1.0757 c 0.742168,-0.7426 1.945447,-0.7426 2.687615,0 0.742158,0.7419 0.677591,1.8862 0,2.6878 -0.428132,0.5057 -0.852474,0.9419 -1.173212,1.549 -0.320752,0.6071 -0.432382,1.4331 -0.346612,2.6233 0.03496,0.4848 -0.185538,0.9729 -0.556621,1.3439 -0.742162,0.7418 -1.945448,0.7418 -2.687616,0 l -4.440534,-4.3306 c -0.742158,-0.7419 -1.945447,-0.7419 -2.687605,0 -0.742168,0.7419 -0.74217,1.9459 -2e-6,2.6878 l 4.33017,4.4405 c 0.74216,0.7419 0.742161,1.9452 0,2.6878 -0.371083,0.371 -0.858706,0.5904 -1.343812,0.5564 -1.189863,-0.085 -2.016472,0.026 -2.623289,0.3462 -0.606819,0.3209 -1.042967,0.7455 -1.549414,1.1739 -0.80155,0.6771 -1.945452,0.7418 -2.687612,0 -0.742166,-0.7427 -0.742166,-1.946 0,-2.6878 l 1.07609,-1.1245 c 0.742168,-0.7419 0.742168,-1.9451 0,-2.6878 -0.74216,-0.7418 -1.945448,-0.7418 -2.687611,0 l -3.373932,3.3904 c -0.742168,0.7427 -1.9454528,0.7427 -2.687617,0 -0.7421627,-0.7419 -0.7421627,-1.9451 1.7e-6,-2.6878 l 17.4849393,-17.3626 c 0.74216,-0.7426 0.742158,-1.9459 -10e-7,-2.6878 -0.742167,-0.7418 -1.945447,-0.7418 -2.687614,0 l -3.297729,3.3099 c -0.742158,0.7418 -1.945447,0.7418 -2.687606,0 -0.742168,-0.7427 -0.742168,-1.9459 0,-2.6878 l 1.07609,-1.1245 c 0.742166,-0.7419 0.742166,-1.9451 0,-2.6878 -0.742168,-0.7418 -1.886063,-0.6771 -2.687615,0 -0.506444,0.4283 -0.942599,0.853 -1.549414,1.1739 -0.606816,0.3212 -1.433423,0.4302 -2.623295,0.3462 -0.485097,-0.035 -0.97272,0.1854 -1.343803,0.5564 -0.7421657,0.7426 -0.7421647,1.9459 0,2.6877 l 4.33017,4.4406 c 0.742167,0.7418 0.742166,1.9459 -2e-6,2.6878 -0.742158,0.7418 -1.945447,0.7418 -2.687605,0 l -4.43936,-4.3299 c -0.7421645,-0.7419 -1.9454513,-0.7419 -2.6876139,0 -0.3710814,0.3709 -0.591583,0.8591 -0.556622,1.3439 0.085751,1.1901 -0.025866,2.0162 -0.3466085,2.6233 -0.3207423,0.6071 -0.7450836,1.0432 -1.1732119,1.549 -0.6775937,0.8015 -0.7421625,1.9459 0,2.6878 0.7421643,0.7426 1.9454478,0.7426 2.6876122,0 l 1.1243826,-1.0757 c 0.7421643,-0.7427 1.9454494,-0.7427 2.6876138,0 0.7421617,0.7419 0.7421617,1.9451 -1.8e-6,2.6878 l -6.1006545,6.1002 -1.6875802,1.6876" style="color:#000000;clip-rule:nonzero;display:inline;overflow:visible;visibility:visible;opacity:1;isolation:auto;mix-blend-mode:normal;color-interpolation:sRGB;color-interpolation-filters:linearRGB;solid-color:#000000;solid-opacity:1;fill:none;fill-opacity:0.2849315;fill-rule:evenodd;stroke:#00ff00;stroke-width:1.84042239;stroke-linecap:round;stroke-linejoin:round;stroke-miterlimit:4;stroke-dasharray:none;stroke-dashoffset:0;stroke-opacity:1;color-rendering:auto;image-rendering:auto;shape-rendering:auto;text-rendering:auto;enable-background:accumulate"/>
  </g>
</svg>
